<svg viewBox="0 0 602 361" xmlns="http://www.w3.org/2000/svg" xmlns:xlink="http://www.w3.org/1999/xlink" width="602.000000" height="361.000000" fill="none" customFrame="#000000">
	<g id="края видео">
		<path id="Rectangle 425" d="M0 32.5L0 31.5C0 27.2282 0.825347 23.141 2.47604 19.2383C4.07011 15.4695 6.32014 12.1321 9.22614 9.22614C12.1321 6.32014 15.4695 4.07011 19.2383 2.47604C23.141 0.825349 27.2282 1.78814e-06 31.5 1.90735e-06L32.5 0L32.5 3L31.5 3C27.6338 3 23.9361 3.74635 20.407 5.23906C16.9975 6.68116 13.9776 8.71729 11.3475 11.3475C8.71729 13.9776 6.68116 16.9975 5.23906 20.407C3.74635 23.9361 3 27.6338 3 31.5L3 32.5L0 32.5ZM32.48 0.0200005L32.5 0C33.34 0 34 0.66 34 1.5C34 2.34 33.34 3 32.5 3L32.48 2.98L32.48 0.0200005ZM2.98 32.48L3 32.5C3 33.34 2.34 34 1.5 34C0.66 34 0 33.34 0 32.5L0.0200005 32.48L2.98 32.48Z" fill="rgb(96,65,211)" fill-rule="nonzero" />
		<path id="Rectangle 426" d="M-1.5 31L-1.5 30C-1.5 25.7282 -0.674653 21.641 0.976042 17.7383C2.57011 13.9695 4.82014 10.6321 7.72614 7.72614C10.6321 4.82014 13.9695 2.57011 17.7383 0.976043C21.641 -0.674651 25.7282 -1.5 30 -1.5L31 -1.5L31 1.5L30 1.5C26.1338 1.5 22.4361 2.24635 18.907 3.73906C15.4975 5.18116 12.4776 7.21729 9.84746 9.84746C7.21729 12.4776 5.18116 15.4975 3.73906 18.907C2.24635 22.4361 1.5 26.1338 1.5 30L1.5 31L-1.5 31ZM30.98 -1.48L31 -1.5C31.84 -1.5 32.5 -0.84 32.5 0C32.5 0.84 31.84 1.5 31 1.5L30.98 1.48L30.98 -1.48ZM1.48 30.98L1.5 31C1.5 31.84 0.84 32.5 0 32.5C-0.84 32.5 -1.5 31.84 -1.5 31L-1.48 30.98L1.48 30.98Z" fill="rgb(96,65,211)" fill-rule="nonzero" transform="matrix(-1,0,0,-1,600.5,359.5)" />
		<path id="Rectangle 428" d="M-1.5 31L-1.5 30C-1.5 25.7282 -0.674653 21.641 0.976042 17.7383C2.57011 13.9695 4.82014 10.6321 7.72614 7.72614C10.6321 4.82014 13.9695 2.57011 17.7383 0.976043C21.641 -0.674651 25.7282 -1.5 30 -1.5L31 -1.5L31 1.5L30 1.5C26.1338 1.5 22.4361 2.24635 18.907 3.73906C15.4975 5.18116 12.4776 7.21729 9.84746 9.84746C7.21729 12.4776 5.18116 15.4975 3.73906 18.907C2.24635 22.4361 1.5 26.1338 1.5 30L1.5 31L-1.5 31ZM30.98 -1.48L31 -1.5C31.84 -1.5 32.5 -0.84 32.5 0C32.5 0.84 31.84 1.5 31 1.5L30.98 1.48L30.98 -1.48ZM1.48 30.98L1.5 31C1.5 31.84 0.84 32.5 0 32.5C-0.84 32.5 -1.5 31.84 -1.5 31L-1.48 30.98L1.48 30.98Z" fill="rgb(96,65,211)" fill-rule="nonzero" transform="matrix(-1,0,0,1,600.5,1.5)" />
		<path id="Rectangle 427" d="M-1.5 31L-1.5 30C-1.5 25.7282 -0.674653 21.641 0.976042 17.7383C2.57011 13.9695 4.82014 10.6321 7.72614 7.72614C10.6321 4.82014 13.9695 2.57011 17.7383 0.976043C21.641 -0.674651 25.7282 -1.5 30 -1.5L31 -1.5L31 1.5L30 1.5C26.1338 1.5 22.4361 2.24635 18.907 3.73906C15.4975 5.18116 12.4776 7.21729 9.84746 9.84746C7.21729 12.4776 5.18116 15.4975 3.73906 18.907C2.24635 22.4361 1.5 26.1338 1.5 30L1.5 31L-1.5 31ZM30.98 -1.48L31 -1.5C31.84 -1.5 32.5 -0.84 32.5 0C32.5 0.84 31.84 1.5 31 1.5L30.98 1.48L30.98 -1.48ZM1.48 30.98L1.5 31C1.5 31.84 0.84 32.5 0 32.5C-0.84 32.5 -1.5 31.84 -1.5 31L-1.48 30.98L1.48 30.98Z" fill="rgb(96,65,211)" fill-rule="nonzero" transform="matrix(1,0,0,-1,1.5,359.5)" />
	</g>
</svg>
