<svg viewBox="0 0 380 635" xmlns="http://www.w3.org/2000/svg" xmlns:xlink="http://www.w3.org/1999/xlink" width="380.000000" height="635.000000" fill="none" customFrame="#000000">
	<g id="края видео">
		<path id="Rectangle 425" d="M-1.5 31L-1.5 30C-1.5 25.7282 -0.674653 21.641 0.976042 17.7383C2.57011 13.9695 4.82014 10.6321 7.72614 7.72614C10.6321 4.82014 13.9695 2.57011 17.7383 0.976043C21.641 -0.674651 25.7282 -1.5 30 -1.5L31 -1.5L31 1.5L30 1.5C26.1338 1.5 22.4361 2.24635 18.907 3.73906C15.4975 5.18116 12.4776 7.21729 9.84746 9.84746C7.21729 12.4776 5.18116 15.4975 3.73906 18.907C2.24635 22.4361 1.5 26.1338 1.5 30L1.5 31L-1.5 31ZM30.98 -1.48L31 -1.5C31.84 -1.5 32.5 -0.84 32.5 0C32.5 0.84 31.84 1.5 31 1.5L30.98 1.48L30.98 -1.48ZM1.48 30.98L1.5 31C1.5 31.84 0.84 32.5 0 32.5C-0.84 32.5 -1.5 31.84 -1.5 31L-1.48 30.98L1.48 30.98Z" fill="rgb(96,65,211)" fill-rule="nonzero" transform="matrix(1.73472e-17,-1,1,1.73472e-17,1.5,633.5)" />
		<path id="Rectangle 426" d="M-1.5 31L-1.5 30C-1.5 25.7282 -0.674653 21.641 0.976042 17.7383C2.57011 13.9695 4.82014 10.6321 7.72614 7.72614C10.6321 4.82014 13.9695 2.57011 17.7383 0.976043C21.641 -0.674651 25.7282 -1.5 30 -1.5L31 -1.5L31 1.5L30 1.5C26.1338 1.5 22.4361 2.24635 18.907 3.73906C15.4975 5.18116 12.4776 7.21729 9.84746 9.84746C7.21729 12.4776 5.18116 15.4975 3.73906 18.907C2.24635 22.4361 1.5 26.1338 1.5 30L1.5 31L-1.5 31ZM30.98 -1.48L31 -1.5C31.84 -1.5 32.5 -0.84 32.5 0C32.5 0.84 31.84 1.5 31 1.5L30.98 1.48L30.98 -1.48ZM1.48 30.98L1.5 31C1.5 31.84 0.84 32.5 0 32.5C-0.84 32.5 -1.5 31.84 -1.5 31L-1.48 30.98L1.48 30.98Z" fill="rgb(96,65,211)" fill-rule="nonzero" transform="matrix(-1.73472e-17,1,-1,-1.73472e-17,378.5,1.5)" />
		<path id="Rectangle 428" d="M-1.5 31L-1.5 30C-1.5 25.7282 -0.674653 21.641 0.976042 17.7383C2.57011 13.9695 4.82014 10.6321 7.72614 7.72614C10.6321 4.82014 13.9695 2.57011 17.7383 0.976043C21.641 -0.674651 25.7282 -1.5 30 -1.5L31 -1.5L31 1.5L30 1.5C26.1338 1.5 22.4361 2.24635 18.907 3.73906C15.4975 5.18116 12.4776 7.21729 9.84746 9.84746C7.21729 12.4776 5.18116 15.4975 3.73906 18.907C2.24635 22.4361 1.5 26.1338 1.5 30L1.5 31L-1.5 31ZM30.98 -1.48L31 -1.5C31.84 -1.5 32.5 -0.84 32.5 0C32.5 0.84 31.84 1.5 31 1.5L30.98 1.48L30.98 -1.48ZM1.48 30.98L1.5 31C1.5 31.84 0.84 32.5 0 32.5C-0.84 32.5 -1.5 31.84 -1.5 31L-1.48 30.98L1.48 30.98Z" fill="rgb(96,65,211)" fill-rule="nonzero" transform="matrix(-1.73472e-17,1,1,1.73472e-17,1.5,1.5)" />
		<path id="Rectangle 427" d="M-1.5 31L-1.5 30C-1.5 25.7282 -0.674653 21.641 0.976042 17.7383C2.57011 13.9695 4.82014 10.6321 7.72614 7.72614C10.6321 4.82014 13.9695 2.57011 17.7383 0.976043C21.641 -0.674651 25.7282 -1.5 30 -1.5L31 -1.5L31 1.5L30 1.5C26.1338 1.5 22.4361 2.24635 18.907 3.73906C15.4975 5.18116 12.4776 7.21729 9.84746 9.84746C7.21729 12.4776 5.18116 15.4975 3.73906 18.907C2.24635 22.4361 1.5 26.1338 1.5 30L1.5 31L-1.5 31ZM30.98 -1.48L31 -1.5C31.84 -1.5 32.5 -0.84 32.5 0C32.5 0.84 31.84 1.5 31 1.5L30.98 1.48L30.98 -1.48ZM1.48 30.98L1.5 31C1.5 31.84 0.84 32.5 0 32.5C-0.84 32.5 -1.5 31.84 -1.5 31L-1.48 30.98L1.48 30.98Z" fill="rgb(96,65,211)" fill-rule="nonzero" transform="matrix(1.73472e-17,-1,-1,-1.73472e-17,378.5,633.5)" />
	</g>
</svg>
