<svg viewBox="0 0 64 64" xmlns="http://www.w3.org/2000/svg" xmlns:xlink="http://www.w3.org/1999/xlink" width="64.000000" height="64.000000" fill="none" customFrame="#000000">
	<g id="Group">
		<circle id="Ellipse 37" cx="32" cy="32" r="30" stroke="rgb(96,65,211)" stroke-width="4.000000" />
		<path id="Vector" d="M32.0001 12.8C28.2027 12.8 24.4905 13.9261 21.3331 16.0358C18.1757 18.1456 15.7148 21.1442 14.2616 24.6525C12.8084 28.1609 12.4281 32.0214 13.169 35.7458C13.9098 39.4702 15.7384 42.8913 18.4236 45.5765C21.1088 48.2617 24.5299 50.0903 28.2543 50.8311C31.9788 51.572 35.8392 51.1917 39.3476 49.7385C42.8559 48.2853 45.8546 45.8244 47.9643 42.667C50.074 39.5096 51.2001 35.7975 51.2001 32.0001C51.1895 26.9111 49.1633 22.0337 45.5648 18.4353C41.9664 14.8369 37.089 12.8106 32.0001 12.8ZM32.0001 46.9401C29.0452 46.9401 26.1567 46.0638 23.6998 44.4222C21.243 42.7806 19.3281 40.4473 18.1973 37.7173C17.0665 34.9874 16.7707 31.9835 17.3471 29.0854C17.9236 26.1873 19.3465 23.5253 21.4359 21.4359C23.5253 19.3465 26.1873 17.9236 29.0854 17.3471C31.9835 16.7707 34.9874 17.0665 37.7174 18.1973C40.4473 19.3281 42.7806 21.243 44.4222 23.6998C46.0639 26.1567 46.9401 29.0452 46.9401 32.0001C46.9348 35.9608 45.359 39.7577 42.5584 42.5584C39.7577 45.359 35.9608 46.9348 32.0001 46.9401Z" fill="rgb(96,65,211)" fill-rule="nonzero" />
		<path id="Vector" d="M35.8204 27.7001L30.6604 32.8601L28.1804 30.3601C27.7719 30.0016 27.2424 29.812 26.6992 29.8297C26.1561 29.8474 25.64 30.0711 25.2557 30.4553C24.8714 30.8396 24.6477 31.3557 24.63 31.8989C24.6123 32.442 24.802 32.9716 25.1604 33.3801L29.1604 37.3801C29.5615 37.7794 30.1044 38.0037 30.6704 38.0037C31.2364 38.0037 31.7794 37.7794 32.1804 37.3801L38.8404 30.7001C39.04 30.5045 39.1985 30.2712 39.3067 30.0136C39.415 29.756 39.4707 29.4794 39.4707 29.2001C39.4707 28.9207 39.415 28.6441 39.3067 28.3865C39.1985 28.129 39.04 27.8956 38.8404 27.7001C38.6432 27.4999 38.4081 27.341 38.1489 27.2325C37.8896 27.124 37.6114 27.0681 37.3304 27.0681C37.0494 27.0681 36.7712 27.124 36.512 27.2325C36.2527 27.341 36.0177 27.4999 35.8204 27.7001Z" fill="rgb(96,65,211)" fill-rule="nonzero" />
	</g>
</svg>
