<svg viewBox="0 0 56 56" xmlns="http://www.w3.org/2000/svg" xmlns:xlink="http://www.w3.org/1999/xlink" width="56.000000" height="56.000000" fill="none">
	<rect id="inst" width="56.000000" height="56.000000" x="0.000000" y="0.000000" fill="rgb(255,255,255)" fill-opacity="0" />
	<g id="Group">
		<path id="Vector" d="M28 56C43.464 56 56 43.464 56 28C56 12.536 43.464 0 28 0C12.536 0 0 12.536 0 28C0 43.464 12.536 56 28 56Z" fill="rgb(96,65,211)" fill-rule="evenodd" />
		<g id="Group">
			<path id="Vector" d="M28.0001 12.6001C23.8184 12.6001 23.2936 12.6179 21.6506 12.6925C20.0111 12.7671 18.8916 13.0277 17.9119 13.408C16.8845 13.795 15.9539 14.4014 15.1849 15.1849C14.4012 15.9542 13.7948 16.8853 13.408 17.9131C13.0277 18.8916 12.7683 20.0111 12.6925 21.6506C12.6179 23.2936 12.6001 23.8184 12.6001 28.0001C12.6001 32.1818 12.6179 32.7066 12.6925 34.3496C12.7671 35.9891 13.0277 37.1086 13.408 38.0871C13.8025 39.0999 14.3285 39.9588 15.1849 40.8153C15.9539 41.5988 16.8845 42.2052 17.9119 42.5922C18.8916 42.9713 20.0111 43.2319 21.6506 43.3077C23.2936 43.3823 23.8184 43.4001 28.0001 43.4001C32.1818 43.4001 32.7066 43.3823 34.3496 43.3077C35.9891 43.2331 37.1086 42.9725 38.0871 42.5922C39.1149 42.2054 40.046 41.599 40.8153 40.8153C41.599 40.046 42.2054 39.1149 42.5922 38.0871C42.9713 37.1086 43.2319 35.9891 43.3077 34.3496C43.3823 32.7066 43.4001 32.1818 43.4001 28.0001C43.4001 23.8184 43.3823 23.2936 43.3077 21.6506C43.2331 20.0111 42.9725 18.8916 42.591 17.9131C42.2046 16.8854 41.5986 15.9543 40.8153 15.1849C40.046 14.4012 39.1149 13.7948 38.0871 13.408C37.1086 13.0289 35.9891 12.7683 34.3496 12.6925C32.7066 12.6179 32.1818 12.6001 28.0001 12.6001ZM28.0001 15.3745C32.1119 15.3745 32.5988 15.3911 34.2229 15.4645C35.7238 15.5332 36.54 15.7843 37.0825 15.9952C37.8016 16.2748 38.3145 16.6077 38.8535 17.1467C39.3925 17.6857 39.7254 18.1986 40.005 18.9177C40.2159 19.4602 40.467 20.2752 40.5357 21.7773C40.6091 23.4002 40.6257 23.8883 40.6257 28.0001C40.6257 32.1119 40.6091 32.5988 40.5357 34.2229C40.467 35.725 40.2159 36.54 40.005 37.0825C39.7583 37.7515 39.3648 38.3566 38.8535 38.8535C38.3567 39.3649 37.7515 39.7583 37.0825 40.005C36.54 40.2159 35.7238 40.467 34.2229 40.5357C32.6 40.6091 32.1119 40.6257 28.0001 40.6257C23.8883 40.6257 23.4002 40.6091 21.7773 40.5357C20.2752 40.467 19.4602 40.2159 18.9177 40.005C18.2487 39.7583 17.6435 39.3649 17.1467 38.8535C16.6354 38.3566 16.242 37.7514 15.9952 37.0825C15.7843 36.54 15.5332 35.725 15.4645 34.2229C15.3911 32.6 15.3745 32.1119 15.3745 28.0001C15.3745 23.8883 15.3911 23.4014 15.4645 21.7773C15.5332 20.2752 15.7843 19.4602 15.9952 18.9177C16.2748 18.1986 16.6077 17.6857 17.1467 17.1467C17.6435 16.6353 18.2487 16.2419 18.9177 15.9952C19.4602 15.7843 20.2752 15.5332 21.7773 15.4645C23.4002 15.3911 23.8883 15.3745 28.0001 15.3745Z" fill="rgb(255,255,255)" fill-rule="evenodd" />
			<path id="Vector" d="M28.0009 19.7071C25.8016 19.7071 23.6924 20.5808 22.1373 22.1359C20.5822 23.691 19.7085 25.8002 19.7085 27.9994C19.7085 30.1987 20.5822 32.3078 22.1373 33.863C23.6924 35.4181 25.8016 36.2917 28.0009 36.2917C30.2001 36.2917 32.3093 35.4181 33.8645 33.863C35.4196 32.3078 36.2933 30.1987 36.2933 27.9994C36.2933 25.8002 35.4196 23.691 33.8645 22.1359C32.3093 20.5808 30.2001 19.7071 28.0009 19.7071ZM28.0009 33.3302C26.5871 33.3302 25.2311 32.7685 24.2314 31.7688C23.2317 30.7691 22.6701 29.4132 22.6701 27.9994C22.6701 26.5856 23.2317 25.2297 24.2314 24.23C25.2311 23.2303 26.5871 22.6686 28.0009 22.6686C29.4147 22.6686 30.7706 23.2303 31.7703 24.23C32.7701 25.2297 33.3317 26.5856 33.3317 27.9994C33.3317 29.4132 32.7701 30.7691 31.7703 31.7688C30.7706 32.7685 29.4147 33.3302 28.0009 33.3302ZM38.3071 19.8256C38.3071 20.0745 38.2581 20.3209 38.1628 20.5509C38.0676 20.7809 37.928 20.9898 37.752 21.1658C37.576 21.3418 37.367 21.4814 37.1371 21.5767C36.9071 21.6719 36.6606 21.7209 36.4117 21.7209C36.1628 21.7209 35.9163 21.6719 35.6864 21.5767C35.4564 21.4814 35.2475 21.3418 35.0715 21.1658C34.8955 20.9898 34.7558 20.7809 34.6606 20.5509C34.5653 20.3209 34.5163 20.0745 34.5163 19.8256C34.5163 19.3229 34.716 18.8408 35.0715 18.4853C35.4269 18.1299 35.909 17.9302 36.4117 17.9302C36.9144 17.9302 37.3965 18.1299 37.752 18.4853C38.1074 18.8408 38.3071 19.3229 38.3071 19.8256Z" fill="rgb(255,255,255)" fill-rule="evenodd" />
		</g>
	</g>
</svg>
