<svg viewBox="0 0 157 56" xmlns="http://www.w3.org/2000/svg" xmlns:xlink="http://www.w3.org/1999/xlink" width="157.000000" height="56.000000" fill="none" customFrame="#000000">
	<g id="logo">
		<path id="ReFix" d="M61.9682 43.761L55.8939 33.177L52.3965 33.177L52.3965 43.761L45.0337 43.761L45.0337 11.5488L57.9186 11.5488C64.0389 11.5488 68.9628 16.4726 68.9628 22.593C68.9628 26.5505 66.5699 30.1398 63.0266 31.9345L69.8831 43.761L61.9682 43.761ZM52.3965 18.4514L52.3965 26.7345L57.9186 26.7345C59.9434 26.7345 61.6 24.9398 61.6 22.593C61.6 20.2461 59.9434 18.4514 57.9186 18.4514L52.3965 18.4514ZM78.1131 35.0177C78.9874 37.4106 81.1042 38.2389 83.6352 38.2389C85.5219 38.2389 87.1325 37.5026 88.0528 36.4902L93.5749 39.6654C91.3201 42.7946 87.9148 44.4052 83.5431 44.4052C75.6742 44.4052 70.7963 39.1132 70.7963 32.2566C70.7963 25.4 75.7662 20.108 83.0369 20.108C89.7555 20.108 94.7254 25.308 94.7254 32.2566C94.7254 33.223 94.6333 34.1433 94.4493 35.0177L78.1131 35.0177ZM77.975 29.8637L87.8688 29.8637C87.1325 27.1947 85.0617 26.2283 82.9909 26.2283C80.3679 26.2283 78.6193 27.5168 77.975 29.8637ZM118.428 18.6355L106.233 18.6355L106.233 24.8478L118.198 24.8478L118.198 31.9345L106.233 31.9345L106.233 43.761L98.8705 43.761L98.8705 11.5488L118.428 11.5488L118.428 18.6355ZM125.999 18.7275C123.744 18.7275 121.858 16.8408 121.858 14.5859C121.858 12.3311 123.744 10.4444 125.999 10.4444C128.254 10.4444 130.141 12.3311 130.141 14.5859C130.141 16.8408 128.254 18.7275 125.999 18.7275ZM122.548 43.761L122.548 20.7523L129.451 20.7523L129.451 43.761L122.548 43.761ZM156.36 43.761L148.445 43.761L144.165 37.6867L139.886 43.761L131.971 43.761L140.208 32.0725L132.247 20.7523L140.162 20.7523L144.165 26.4584L148.169 20.7523L156.084 20.7523L148.123 32.0725L156.36 43.761Z" fill="rgb(42.5,42.5,42.5)" fill-rule="nonzero" />
		<path id="Ellipse 34" d="M21.253 5.91837C17.5416 6.36581 13.9948 7.70706 10.9184 9.82653C7.84196 11.946 5.32809 14.7801 3.59343 18.0847C1.85876 21.3893 0.955326 25.0652 0.960964 28.7957L11.5675 28.7797C11.5644 26.7652 12.0523 24.7803 12.989 22.9958C13.9257 21.2113 15.2832 19.6809 16.9445 18.5364C18.6058 17.3918 20.521 16.6676 22.5252 16.426C24.5294 16.1843 26.5624 16.4326 28.449 17.1494L32.223 7.25808C28.7293 5.9307 24.9645 5.47092 21.253 5.91837Z" fill="rgb(96,65,211)" fill-rule="evenodd" />
		<ellipse id="Ellipse 35" rx="6.244794" ry="6.231523" cx="6.24479389" cy="40.7445221" fill="rgb(96,65,211)" />
	</g>
</svg>
