<svg viewBox="0 0 62 62" xmlns="http://www.w3.org/2000/svg" xmlns:xlink="http://www.w3.org/1999/xlink" width="62.000000" height="62.000000" fill="none">
	<rect id="Frame" width="62.000000" height="62.000000" x="0.000000" y="0.000000" fill="rgb(255,255,255)" fill-opacity="0" />
	<g id="Group">
		<path id="Vector" d="M60.0606 30.5866C57.9876 28.8781 54.711 28.7316 52.5605 31.0395L47.2218 36.7705C46.5316 34.5522 44.4598 32.9369 42.0176 32.9369L32.4905 32.9369C31.7676 32.9369 31.5255 32.6608 30.2698 31.6934C25.482 27.5195 18.2907 27.5329 13.5175 31.7334L10.0157 34.8162C8.44157 33.983 6.60349 33.9624 5.02079 34.7532L1.00435 36.7608C0.107048 37.2101 -0.256112 38.301 0.191813 39.1983L11.0896 60.9938C11.5389 61.8911 12.6298 62.2543 13.5271 61.8064L17.5436 59.7975C19.5233 58.8083 20.6252 56.7885 20.5537 54.7326L42.0175 54.7326C45.9976 54.7326 49.8009 52.8315 52.1887 49.647L60.9082 38.0203C62.5998 35.7667 62.3322 32.4622 60.0606 30.5866ZM15.9185 56.5487L13.527 57.745L4.25306 39.1983L6.64575 38.002C7.54305 37.554 8.63277 37.916 9.08203 38.8145L16.731 54.1126C17.1791 55.0097 16.8158 56.0995 15.9185 56.5487ZM58.0021 35.8406L49.2827 47.4673C47.5766 49.7425 44.8606 51.0999 42.0176 51.0999L19.286 51.0999L12.4797 37.4861L15.9173 34.4603C19.3379 31.4512 24.4963 31.4512 27.917 34.4603C29.9318 36.2342 31.185 36.5696 32.4904 36.5696L42.0175 36.5696C43.0189 36.5696 43.8338 37.3846 43.8338 38.3859C43.8338 39.3872 43.0188 40.2022 42.0175 40.2022L32.7411 40.2022C31.7384 40.2022 30.9248 41.0159 30.9248 42.0184C30.9248 43.021 31.7386 43.8347 32.7411 43.8347L43.2345 43.8347C44.742 43.8347 46.1951 43.2026 47.2218 42.0996L55.2184 33.5157C55.9498 32.731 57.071 32.7964 57.7588 33.3983C58.478 34.0278 58.5556 35.1044 58.0021 35.8406ZM38.1912 12.3958C39.4347 11.0917 40.2012 9.32871 40.2012 7.38758C40.2012 3.3893 36.9706 0.00134277 32.936 0.00134277C28.9317 0.00134277 25.5498 3.38325 25.5498 7.38758C25.5498 9.26925 26.2873 11.0456 27.6264 12.4103C24.3051 14.2726 21.9172 17.847 21.9172 22.0391L21.9172 23.8554C21.9172 24.8579 22.731 25.6716 23.7335 25.6716L42.0176 25.6716C43.0201 25.6716 43.8339 24.8579 43.8339 23.8554L43.8339 22.0391C43.8338 17.9294 41.5733 14.2992 38.1912 12.3958ZM32.936 3.63403C34.9049 3.63403 36.5686 5.35344 36.5686 7.3877C36.5686 9.39047 34.9388 11.0203 32.936 11.0203C30.9018 11.0203 29.1824 9.35656 29.1824 7.3877C29.1824 5.38856 30.9369 3.63403 32.936 3.63403ZM25.5498 22.0391C25.5498 18.0347 28.9317 14.6528 32.936 14.6528C36.9416 14.6528 40.2012 17.9657 40.2012 22.0391L25.5498 22.0391Z" fill="rgb(96,65,211)" fill-rule="nonzero" />
	</g>
</svg>
