<svg viewBox="0 0 49.7778 62.2609" xmlns="http://www.w3.org/2000/svg" xmlns:xlink="http://www.w3.org/1999/xlink" width="49.777832" height="62.260864" fill="none" customFrame="#000000">
	<g id="Group">
		<path id="Vector" d="M41.1736 43.7108C45.012 40.3899 47.7432 35.9748 49.0012 31.0576C50.2592 26.1403 49.9837 20.956 48.2118 16.1998C46.4398 11.4436 43.2561 7.34279 39.0874 4.44729C34.9187 1.55178 29.9645 -2.15877e-15 24.8889 0C19.8133 -1.72701e-15 14.859 1.55178 10.6904 4.44729C6.52173 7.34279 3.33798 11.4436 1.56601 16.1998C-0.20595 20.956 -0.481409 26.1403 0.776568 31.0576C2.03454 35.9748 4.76582 40.3899 8.60417 43.7108L3.49028 52.5386C3.3029 52.8652 3.20769 53.2366 3.2148 53.6131C3.22192 53.9897 3.33109 54.3572 3.53068 54.6765C3.73027 54.9959 4.01279 55.2551 4.34811 55.4264C4.68344 55.5978 5.05899 55.675 5.43473 55.6497L11.8708 55.3775L14.8458 61.0747C15.0186 61.4018 15.2754 61.6769 15.5898 61.8717C15.9043 62.0665 16.2649 62.174 16.6347 62.183C17.0055 62.1861 17.3708 62.0928 17.6946 61.9121C18.0185 61.7314 18.2898 61.4696 18.4819 61.1525L24.8792 49.9719L31.3736 61.2303C31.5563 61.5428 31.8175 61.8023 32.1312 61.9831C32.445 62.1638 32.8004 62.2595 33.1625 62.2608C33.538 62.2546 33.9052 62.1487 34.2263 61.9539C34.5475 61.7592 34.8111 61.4826 34.9903 61.1525L37.9653 55.4552L44.3819 55.7275C44.7644 55.751 45.146 55.6685 45.4845 55.4889C45.8231 55.3094 46.1055 55.0399 46.3005 54.71C46.4956 54.3802 46.5958 54.0029 46.5901 53.6197C46.5844 53.2366 46.4729 52.8624 46.2681 52.5386L41.1736 43.7108ZM4.22917 24.9275C4.22922 20.8199 5.44851 16.8048 7.73257 13.3909C10.0166 9.97696 13.2627 7.31782 17.0594 5.75041C20.8561 4.183 25.0327 3.77786 29.0599 4.5863C33.0871 5.39475 36.7837 7.38041 39.6813 10.2917C42.5789 13.203 44.5472 16.9089 45.3367 20.9398C46.1263 24.9708 45.7015 29.1454 44.1163 32.9347C42.5311 36.724 39.8567 39.9575 36.4321 42.2255C33.0074 44.4935 28.9867 45.6939 24.8792 45.6747C19.3782 45.6695 14.1041 43.482 10.2144 39.5923C6.32461 35.7025 4.1371 30.4284 4.13195 24.9275L4.22917 24.9275ZM16.7708 55.883L14.9236 52.3636C14.7407 52.0112 14.4599 51.7191 14.1149 51.5225C13.77 51.3259 13.3756 51.2331 12.9792 51.2553L9.09028 51.4108L12.1236 46.1608C14.7201 47.7488 17.5877 48.8431 20.5819 49.3886L16.7708 55.883ZM36.9542 51.2553C36.5577 51.2331 36.1633 51.3259 35.8184 51.5225C35.4735 51.7191 35.1926 52.0112 35.0097 52.3636L33.1625 55.883L29.4097 49.3886C32.404 48.8431 35.2716 47.7488 37.8681 46.1608L40.9014 51.4108L36.9542 51.2553Z" fill="rgb(96,65,211)" fill-rule="nonzero" />
		<path id="Vector" d="M16.4215 27.6691L16.7132 33.5025C16.7235 33.8146 16.8039 34.1204 16.9485 34.3971C17.093 34.6739 17.298 34.9146 17.5483 35.1014C17.7986 35.2882 18.0876 35.4162 18.3941 35.476C18.7006 35.5358 19.0166 35.5259 19.3188 35.4469L24.8799 33.8136L30.441 35.3108C30.7423 35.3863 31.0564 35.3958 31.3618 35.3388C31.6672 35.2817 31.9567 35.1594 32.2104 34.9802C32.4614 34.7981 32.6685 34.5621 32.8165 34.2896C32.9645 34.0171 33.0498 33.7149 33.066 33.4052L33.3577 27.5719L36.5465 22.8664C36.7149 22.607 36.8233 22.3134 36.864 22.0069C36.9046 21.7004 36.8764 21.3886 36.7814 21.0944C36.6864 20.8001 36.5271 20.5307 36.3149 20.3058C36.1027 20.0809 35.8431 19.9061 35.5549 19.7941L30.1104 17.733L26.4938 13.2608C26.2987 13.021 26.0526 12.8277 25.7734 12.6949C25.4943 12.5622 25.189 12.4933 24.8799 12.4933C24.5707 12.4933 24.2655 12.5622 23.9863 12.6949C23.7072 12.8277 23.4611 13.021 23.266 13.2608L19.6493 17.733L14.2632 19.7747C13.9672 19.8798 13.6988 20.0506 13.4782 20.2743C13.2575 20.498 13.0905 20.7687 12.9894 21.0662C12.8884 21.3637 12.856 21.6802 12.8948 21.992C12.9336 22.3037 13.0424 22.6027 13.2132 22.8664L16.4215 27.6691ZM21.6521 21.4275C21.9954 21.2947 22.2973 21.0733 22.5271 20.7858L24.8799 17.8691L27.2327 20.7858C27.4624 21.0733 27.7644 21.2947 28.1077 21.4275L31.6077 22.7497L29.5465 25.8802C29.3474 26.1886 29.2333 26.5441 29.216 26.9108L29.0215 30.6441L25.4049 29.6719C25.0482 29.5762 24.6726 29.5762 24.316 29.6719L20.6993 30.6441L20.5049 26.9108C20.4875 26.5441 20.3735 26.1886 20.1743 25.8802L18.1327 22.7497L21.6521 21.4275Z" fill="rgb(96,65,211)" fill-rule="nonzero" />
	</g>
</svg>
