<svg viewBox="0 0 64.5 52.5" xmlns="http://www.w3.org/2000/svg" xmlns:xlink="http://www.w3.org/1999/xlink" width="64.500000" height="52.500000" fill="none" customFrame="#000000">
	<g id="Group">
		<path id="Vector" d="M23.8709 9.93602C27.8387 6.42792 32.9537 4.49418 38.25 4.50002C50.253 4.50002 60 14.247 60 26.25C60 38.253 50.253 48 38.25 48C32.9537 48.0059 27.8387 46.0721 23.8709 42.564C23.4222 42.1802 22.8406 41.9881 22.2515 42.0293C21.6624 42.0705 21.1132 42.3416 20.7222 42.7841C20.3312 43.2267 20.1299 43.8052 20.1617 44.3948C20.1934 44.9845 20.4557 45.538 20.8919 45.936C25.6807 50.1729 31.856 52.5082 38.25 52.5C52.737 52.5 64.5 40.737 64.5 26.25C64.5 11.763 52.737 2.11897e-05 38.25 2.11897e-05C31.856 -0.00811512 25.6807 2.32711 20.8919 6.56402C20.6651 6.75805 20.4792 6.99528 20.3449 7.26189C20.2106 7.5285 20.1308 7.81915 20.11 8.11693C20.0892 8.4147 20.1278 8.71364 20.2236 8.99633C20.3195 9.27903 20.4706 9.53982 20.6683 9.76353C20.8659 9.98723 21.1061 10.1694 21.3748 10.2993C21.6435 10.4293 21.9354 10.5045 22.2335 10.5206C22.5316 10.5366 22.8298 10.4932 23.111 10.3929C23.3921 10.2925 23.6504 10.1372 23.8709 9.93602Z" fill="rgb(96,65,211)" fill-rule="evenodd" />
		<path id="Vector" d="M34.8 13.05L34.8 25.0501C34.8 25.6471 35.037 26.22 35.46 26.64L45.06 36.24C45.4817 36.6617 46.0536 36.8987 46.65 36.8987C47.2464 36.8987 47.8183 36.6617 48.24 36.24C48.6617 35.8184 48.8986 35.2464 48.8986 34.65C48.8986 34.0537 48.6617 33.4817 48.24 33.0601L39.3 24.117L39.3 13.05C39.3 12.4533 39.0629 11.881 38.641 11.4591C38.219 11.0371 37.6467 10.8 37.05 10.8C36.4533 10.8 35.881 11.0371 35.459 11.4591C35.0371 11.881 34.8 12.4533 34.8 13.05ZM2.25 18L20.25 18C20.8467 18 21.419 17.763 21.841 17.341C22.2629 16.9191 22.5 16.3468 22.5 15.75C22.5 15.1533 22.2629 14.581 21.841 14.1591C21.419 13.7371 20.8467 13.5 20.25 13.5L2.25 13.5C1.65326 13.5 1.08097 13.7371 0.65901 14.1591C0.237053 14.581 0 15.1533 0 15.75C0 16.3468 0.237053 16.9191 0.65901 17.341C1.08097 17.763 1.65326 18 2.25 18ZM5.25 28.5L23.25 28.5C23.8467 28.5 24.419 28.263 24.841 27.841C25.2629 27.4191 25.5 26.8468 25.5 26.25C25.5 25.6533 25.2629 25.081 24.841 24.6591C24.419 24.2371 23.8467 24 23.25 24L5.25 24C4.65326 24 4.08097 24.2371 3.65901 24.6591C3.23705 25.081 3 25.6533 3 26.25C3 26.8468 3.23705 27.4191 3.65901 27.841C4.08097 28.263 4.65326 28.5 5.25 28.5ZM8.25 39L26.25 39C26.8467 39 27.419 38.763 27.841 38.341C28.2629 37.9191 28.5 37.3468 28.5 36.75C28.5 36.1533 28.2629 35.581 27.841 35.1591C27.419 34.7371 26.8467 34.5 26.25 34.5L8.25 34.5C7.65326 34.5 7.08097 34.7371 6.65901 35.1591C6.23705 35.581 6 36.1533 6 36.75C6 37.3468 6.23705 37.9191 6.65901 38.341C7.08097 38.763 7.65326 39 8.25 39Z" fill="rgb(96,65,211)" fill-rule="evenodd" />
	</g>
</svg>
