<svg viewBox="0 0 56 56" xmlns="http://www.w3.org/2000/svg" xmlns:xlink="http://www.w3.org/1999/xlink" width="56.000000" height="56.000000" fill="none" customFrame="#000000">
	<defs>
		<clipPath id="clipPath_0">
			<rect width="56.000000" height="56.000000" x="0.000000" y="0.000000" fill="rgb(255,255,255)" />
		</clipPath>
	</defs>
	<g id="tg">
		<g id="Frame" clip-path="url(#clipPath_0)" customFrame="url(#clipPath_0)">
			<rect id="Frame" width="56.000000" height="56.000000" x="0.000000" y="0.000000" fill="rgb(255,255,255)" fill-opacity="0" />
			<g id="Group">
				<g id="Group">
					<path id="Vector" d="M28 56C43.464 56 56 43.464 56 28C56 12.536 43.464 0 28 0C12.536 0 0 12.536 0 28C0 43.464 12.536 56 28 56Z" fill="rgb(96,65,211)" fill-rule="evenodd" />
					<path id="Vector" d="M12.6715 27.7044C20.834 24.1481 26.2771 21.8035 29.0004 20.6708C36.7763 17.4366 38.3921 16.8747 39.4452 16.8562C39.6768 16.8521 40.1947 16.9095 40.5302 17.1818C41.0278 17.5856 41.0307 18.4621 40.9754 19.0422C40.554 23.4697 38.7307 34.214 37.8031 39.1728C37.4106 41.2711 36.6377 41.9747 35.8896 42.0435C34.2636 42.1931 33.0289 40.9689 31.454 39.9366C28.9897 38.3211 27.5974 37.3155 25.2053 35.7392C22.4408 33.9174 24.233 32.9162 25.8084 31.2799C26.2207 30.8517 33.3849 24.3352 33.5236 23.744C33.541 23.6701 33.5571 23.3945 33.3933 23.249C33.2296 23.1035 32.988 23.1532 32.8136 23.1928C32.5665 23.2489 28.6296 25.851 21.0031 30.9991C19.8856 31.7665 18.8735 32.1403 17.9666 32.1207C16.9669 32.0992 15.0438 31.5555 13.6142 31.0908C11.8607 30.5208 10.467 30.2194 10.5884 29.2514C10.6516 28.7471 11.346 28.2315 12.6715 27.7044Z" fill="rgb(255,255,255)" fill-rule="evenodd" />
				</g>
			</g>
		</g>
	</g>
</svg>
