<svg viewBox="0 0 56 56" xmlns="http://www.w3.org/2000/svg" xmlns:xlink="http://www.w3.org/1999/xlink" width="56.000000" height="56.000000" fill="none">
	<rect id="vk" width="56.000000" height="56.000000" x="0.000000" y="0.000000" fill="rgb(255,255,255)" fill-opacity="0" />
	<g id="Group">
		<path id="Vector" d="M28 56C43.464 56 56 43.464 56 28C56 12.536 43.464 0 28 0C12.536 0 0 12.536 0 28C0 43.464 12.536 56 28 56Z" fill="rgb(96,65,211)" fill-rule="evenodd" />
		<path id="Vector" d="M26.9424 40.2803L29.14 40.2803C29.14 40.2803 29.8038 40.2074 30.1428 39.842C30.4547 39.5066 30.4447 38.8767 30.4447 38.8767C30.4447 38.8767 30.4018 35.9279 31.7704 35.4937C33.1195 35.0659 34.852 38.3437 36.6883 39.604C38.0769 40.5578 39.132 40.3487 39.132 40.3487L44.0419 40.2803C44.0419 40.2803 46.6104 40.1221 45.3926 38.1026C45.2927 37.9374 44.6833 36.6087 41.742 33.8785C38.6633 31.021 39.0756 31.4832 42.7841 26.5403C45.0427 23.5301 45.9456 21.6923 45.6636 20.9052C45.3946 20.1555 43.7335 20.3536 43.7335 20.3536L38.2051 20.3881C38.2051 20.3881 37.7954 20.3322 37.4914 20.5139C37.1944 20.6921 37.0033 21.1073 37.0033 21.1073C37.0033 21.1073 36.1283 23.4368 34.9613 25.4178C32.4996 29.598 31.5154 29.8186 31.1131 29.559C30.1772 28.9541 30.4108 27.1288 30.4108 25.8321C30.4108 21.7812 31.0252 20.0921 29.2144 19.6549C28.6134 19.5096 28.1712 19.4138 26.6344 19.3983C24.6618 19.3779 22.9923 19.4043 22.0469 19.8675C21.418 20.1755 20.9329 20.8618 21.2284 20.9012C21.5937 20.9501 22.4213 21.1243 22.86 21.7218C23.4265 22.4924 23.4065 24.2234 23.4065 24.2234C23.4065 24.2234 23.732 28.992 22.6464 29.5845C21.9012 29.9908 20.879 29.1612 18.6843 25.3689C17.5598 23.4263 16.7108 21.279 16.7108 21.279C16.7108 21.279 16.547 20.8777 16.2551 20.6631C15.9007 20.4031 15.4055 20.3202 15.4055 20.3202L10.1522 20.3546C10.1522 20.3546 9.36362 20.3766 9.07413 20.7195C8.81658 21.0245 9.05366 21.6554 9.05366 21.6554C9.05366 21.6554 13.1665 31.2775 17.8233 36.1265C22.0933 40.5723 26.9424 40.2803 26.9424 40.2803Z" fill="rgb(255,255,255)" fill-rule="evenodd" />
	</g>
</svg>
