<svg viewBox="0 0 124 11" xmlns="http://www.w3.org/2000/svg" xmlns:xlink="http://www.w3.org/1999/xlink" width="124.000000" height="11.000000" fill="none" customFrame="#000000">
	<path id="Waves" d="M1.5 1.5C7.55213 1.5 7.55213 9.5 13.6043 9.5C19.6564 9.5 19.6564 1.5 25.7085 1.5C31.7607 1.5 31.7607 9.5 37.7986 9.5C43.8509 9.5 43.8509 1.5 49.8887 1.5C55.9409 1.5 55.9409 9.5 61.9787 9.5C68.031 9.5 68.031 1.5 74.0828 1.5C80.135 1.5 80.135 9.5 86.1873 9.5C92.2391 9.5 92.2391 1.5 98.2914 1.5C104.344 1.5 104.344 9.5 110.396 9.5C116.448 9.5 116.448 1.5 122.5 1.5" fill-rule="nonzero" stroke="rgb(96,65,211)" stroke-linecap="round" stroke-width="3.000000" />
</svg>
